<?xml version="1.0" encoding="utf-8"?>
<!-- Generator: Adobe Illustrator 21.0.0, SVG Export Plug-In . SVG Version: 6.00 Build 0)  -->
<svg version="1.1" id="Layer_1" xmlns="http://www.w3.org/2000/svg" xmlns:xlink="http://www.w3.org/1999/xlink" x="0px" y="0px"
	 viewBox="0 0 34 34" style="enable-background:new 0 0 34 34;" xml:space="preserve">
<style type="text/css">
	.st0{fill:#29292B;}
</style>
<g>
	<path class="st0" d="M1.1,17c0.1-4.4,1.6-8.2,4.8-11.3c3.1-3,6.8-4.6,11.2-4.6c4.4,0,8.2,1.6,11.3,4.7s4.7,7,4.7,11.4
		s-1.6,8.1-4.7,11.2S21.4,33,17,33c-4.3,0-8.1-1.6-11.1-4.7C2.7,25.2,1.2,21.4,1.1,17z M17.2,1.5C8.6,1.5,1.7,8.3,1.6,16.8
		c-0.1,8.7,6.8,15.6,15.3,15.6c8.7,0.2,15.6-6.7,15.7-15.3C32.7,8.5,25.8,1.6,17.2,1.5z"/>
	<path class="st0" d="M16.3,15.4c0-2.2,0-4.4,0-6.5c0-0.3,0-0.3,0.3-0.3c0.4,0,0.8,0,1.2,0c0.1,0,0.2,0,0.2,0.2c0,0.1,0,0.1,0,0.2
		c0,4.4,0,8.7,0,13.1c0,0.1,0,0.1,0,0.2c0.1,0,0.1,0,0.1-0.1c2-2,4.1-4,6.1-6.1c0.1-0.1,0.2-0.1,0.3,0c0.3,0.3,0.6,0.6,0.9,0.9
		c0.1,0.1,0.1,0.2,0,0.3c-1.8,1.8-3.6,3.6-5.4,5.4c-0.9,0.9-1.8,1.8-2.7,2.7c-0.2,0.2-0.2,0.2-0.3,0c-2.7-2.7-5.4-5.4-8.1-8.1
		c-0.2-0.2-0.2-0.2,0-0.4c0.3-0.3,0.6-0.6,0.9-0.9c0.1-0.1,0.2-0.1,0.3,0c1.9,2,3.9,3.9,5.8,5.9c0.1,0.1,0.2,0.2,0.3,0.3
		c0,0,0.1,0.1,0.1,0l0.1-0.1c0-0.1,0-0.1,0-0.2C16.3,19.6,16.3,17.5,16.3,15.4L16.3,15.4z"/>
</g>
</svg>
