<?xml version="1.0" encoding="utf-8"?>
<!-- Generator: Adobe Illustrator 21.0.0, SVG Export Plug-In . SVG Version: 6.00 Build 0)  -->
<svg version="1.1" id="Layer_1" xmlns="http://www.w3.org/2000/svg" xmlns:xlink="http://www.w3.org/1999/xlink" x="0px" y="0px"
	 viewBox="0 0 34 34" style="enable-background:new 0 0 34 34;" xml:space="preserve">
<style type="text/css">
	.st0{fill:#FFFFFF;}
</style>
<g>
	<path class="st0" d="M33.1,17.1c-0.1,4.4-1.6,8.2-4.8,11.3c-3.1,3-6.8,4.6-11.2,4.6c-4.4,0-8.2-1.6-11.3-4.7
		c-3.1-3.1-4.7-7-4.7-11.4c0-4.4,1.6-8.1,4.7-11.2c3.1-3.1,7-4.6,11.4-4.6c4.3,0,8.1,1.6,11.1,4.7C31.5,8.9,33,12.7,33.1,17.1z
		 M17,32.6c8.6,0,15.5-6.8,15.6-15.3c0.1-8.7-6.8-15.6-15.3-15.6C8.6,1.5,1.7,8.4,1.6,17C1.5,25.6,8.4,32.5,17,32.6z"/>
	<path class="st0" d="M17.9,18.7c0,2.2,0,4.4,0,6.5c0,0.3,0,0.3-0.3,0.3c-0.4,0-0.8,0-1.2,0c-0.1,0-0.2,0-0.2-0.2c0-0.1,0-0.1,0-0.2
		c0-4.4,0-8.7,0-13.1c0-0.1,0-0.1,0-0.2c-0.1,0-0.1,0-0.1,0.1c-2,2-4.1,4-6.1,6.1c-0.1,0.1-0.2,0.1-0.3,0c-0.3-0.3-0.6-0.6-0.9-0.9
		c-0.1-0.1-0.1-0.2,0-0.3c1.8-1.8,3.6-3.6,5.4-5.4c0.9-0.9,1.8-1.8,2.7-2.7c0.2-0.2,0.2-0.2,0.3,0c2.7,2.7,5.4,5.4,8.1,8.1
		c0.2,0.2,0.2,0.2,0,0.4c-0.3,0.3-0.6,0.6-0.9,0.9c-0.1,0.1-0.2,0.1-0.3,0c-1.9-2-3.9-3.9-5.8-5.9c-0.1-0.1-0.2-0.2-0.3-0.3
		c0,0-0.1-0.1-0.1,0c0,0-0.1,0.1-0.1,0.1c0,0.1,0,0.1,0,0.2C17.9,14.5,17.9,16.6,17.9,18.7C17.9,18.7,17.9,18.7,17.9,18.7z"/>
</g>
</svg>
