<?xml version="1.0" encoding="utf-8"?>
<!-- Generator: Adobe Illustrator 19.0.0, SVG Export Plug-In . SVG Version: 6.00 Build 0)  -->
<svg version="1.1" id="Layer_1" xmlns="http://www.w3.org/2000/svg" xmlns:xlink="http://www.w3.org/1999/xlink" x="0px" y="0px"
	 viewBox="0 0 60 60" style="enable-background:new 0 0 60 60;" xml:space="preserve">
<style type="text/css">
	.st0{fill:#2A292B;}
</style>
<g>
	<path class="st0" d="M20.8,51c-0.2,0.4-0.3,0.7-0.4,1.1c-0.5,1.1-0.9,2.2-1.3,3.3c-0.1,0.2-0.2,0.3-0.4,0.3c-0.2,0-0.3,0-0.5,0
		c-0.6,0-0.4,0.1-0.7-0.5c-0.5-1.3-1.1-2.6-1.6-3.9c0-0.1-0.1-0.1-0.1-0.2c0,0.1,0,0.2,0,0.3c0,1.7,0,3.3,0,5c0,0.2,0,0.3-0.3,0.3
		c-0.3,0-0.7,0-1,0c-0.2,0-0.3-0.1-0.3-0.3c0-1.6,0-3.3,0-4.9c0-1,0-2,0-3c0-0.2,0.1-0.3,0.3-0.3c0.5,0,0.9,0,1.4,0
		c0.2,0,0.3,0.1,0.4,0.3c0.7,1.6,1.3,3.2,2,4.8c0,0,0,0.1,0.1,0.1c0.1-0.1,0.1-0.2,0.2-0.3c0.6-1.6,1.3-3.1,1.9-4.7
		c0.1-0.2,0.2-0.3,0.4-0.3c0.5,0,0.9,0,1.4,0c0.2,0,0.3,0,0.3,0.3c0,2.7,0,5.3,0,8c0,0.2,0,0.3-0.3,0.3c-0.3,0-0.6,0-1,0
		c-0.2,0-0.3-0.1-0.3-0.3c0-1,0-1.9,0-2.9c0-0.7,0-1.3,0-2C20.9,51.2,20.9,51.1,20.8,51z"/>
	<path class="st0" d="M38.3,37.9c0-1.3,0-2.7,0-4c0-0.2,0.1-0.3,0.3-0.3c1.1,0,2.1,0,3.2,0c1.3,0,2.3,0.6,2.9,1.8
		c0.2,0.4,0.3,0.8,0.3,1.2c0,0.8,0,1.5,0,2.3c0,1.6-1.1,2.9-2.7,3.1c-0.3,0-0.5,0.1-0.8,0.1c-1,0-1.9,0-2.9,0
		c-0.3,0-0.3-0.1-0.3-0.3C38.3,40.6,38.3,39.2,38.3,37.9z M43.4,37.9c0-0.4,0-0.7,0-1.1c0-1-0.5-1.6-1.5-1.7c-0.6-0.1-1.2,0-1.9,0
		c-0.2,0-0.2,0.1-0.2,0.2c0,1.8,0,3.5,0,5.3c0,0.2,0,0.2,0.2,0.2c0.6,0,1.1,0,1.7,0c1,0,1.6-0.7,1.6-1.7
		C43.4,38.7,43.4,38.3,43.4,37.9z"/>
	<path class="st0" d="M39.1,56.5c-0.6,0-1.1,0-1.6,0c-0.2,0-0.2-0.1-0.2-0.2c-0.6-0.9-1.2-1.8-1.7-2.8c-0.1-0.2-0.2-0.3-0.4-0.2
		c-0.3,0-0.5,0-0.8,0c-0.2,0-0.3,0.1-0.3,0.3c0,0.9,0,1.8,0,2.6c0,0.2-0.1,0.3-0.3,0.3c-0.3,0-0.7,0-1,0c-0.2,0-0.3-0.1-0.3-0.3
		c0-1.1,0-2.3,0-3.4c0-1.5,0-3,0-4.5c0-0.2,0-0.3,0.3-0.3c1.1,0,2.1,0,3.2,0c1.3,0,2.3,0.7,2.6,1.8c0.4,1.4-0.2,2.8-1.4,3.3
		c-0.2,0.1-0.1,0.2,0,0.3c0.6,1,1.2,1.9,1.8,2.9C39,56.3,39,56.4,39.1,56.5z M34,50.7c0,0.4,0,0.8,0,1.1c0,0.1,0,0.2,0.1,0.2
		c0.6,0,1.3,0.1,1.9-0.1c0.7-0.1,1.1-0.6,1-1.3c0-0.7-0.4-1.2-1.1-1.3c-0.6-0.1-1.2,0-1.8,0c-0.2,0-0.2,0.1-0.2,0.2
		C34,49.9,34,50.3,34,50.7z"/>
	<path class="st0" d="M28.9,37.9c0,0.4,0,0.9,0,1.3c0,1.2-0.5,2.1-1.5,2.6c-1.4,0.8-2.9,0.7-4.3-0.2c-0.8-0.5-1.1-1.2-1.1-2.1
		c0-0.9,0-1.8,0-2.7c0-1.5,0.8-2.6,2.2-3c1.4-0.5,3.1-0.1,4,1c0.5,0.5,0.7,1.2,0.7,1.9C28.9,37,28.9,37.5,28.9,37.9z M23.6,37.9
		C23.6,37.9,23.6,37.9,23.6,37.9c0,0.5,0,0.9,0,1.4c0,0.6,0.3,1,0.7,1.3c0.3,0.2,0.7,0.3,1.1,0.3c1.1,0.1,1.9-0.6,1.9-1.6
		c0-0.9,0-1.9,0-2.8c0-0.7-0.4-1.1-0.9-1.4c-0.4-0.2-0.7-0.2-1.1-0.2c-1,0.1-1.6,0.7-1.6,1.8C23.6,37.1,23.6,37.5,23.6,37.9z"/>
	<path class="st0" d="M24,52.4c0-0.4,0-0.9,0-1.3c0-1.3,0.6-2.2,1.7-2.7c1.2-0.6,2.5-0.6,3.7,0.1c0.9,0.5,1.4,1.3,1.5,2.3
		c0.1,1,0.1,2.1,0,3.1c-0.1,1.2-0.7,2-1.7,2.5c-1.3,0.7-3.2,0.4-4.2-0.5c-0.6-0.5-0.9-1.2-0.9-1.9C24,53.4,24,52.9,24,52.4z
		 M25.5,52.3C25.5,52.3,25.5,52.3,25.5,52.3c0,0.5,0,1,0,1.4c0,0.6,0.3,1,0.7,1.3c0.3,0.2,0.7,0.3,1.1,0.3c1.1,0.1,1.9-0.6,1.9-1.6
		c0-0.9,0-1.9,0-2.8c0-0.7-0.3-1.1-0.9-1.4c-0.4-0.2-0.7-0.2-1.1-0.2c-1,0.1-1.6,0.7-1.6,1.7C25.5,51.4,25.5,51.9,25.5,52.3z"/>
	<path class="st0" d="M40.2,52.3c0-1.3,0-2.6,0-4c0-0.2,0.1-0.3,0.3-0.3c1.8,0,3.6,0,5.4,0c0.2,0,0.3,0.1,0.3,0.3c0,0.3,0,0.5,0,0.8
		c0,0.2-0.1,0.3-0.3,0.3c-1.2,0-2.5,0-3.7,0c-0.3,0-0.4,0.1-0.4,0.4c0,0.5,0,0.9,0,1.4c0,0.3,0.1,0.3,0.3,0.3c1.1,0,2.1,0,3.2,0
		c0.2,0,0.3,0.1,0.3,0.3c0,0.3,0,0.5,0,0.8c0,0.2-0.1,0.3-0.3,0.3c-1.1,0-2.1,0-3.2,0c-0.3,0-0.3,0.1-0.3,0.3c0,0.5,0,1.1,0,1.6
		c0,0.3,0.1,0.3,0.3,0.3c1.2,0,2.5,0,3.7,0c0.4,0,0.4-0.1,0.4,0.4c0,0.3,0,0.5,0,0.8c0,0.1,0,0.2-0.2,0.2c-1.9,0-3.7,0-5.6,0
		c-0.2,0-0.2-0.1-0.2-0.3C40.2,54.9,40.2,53.6,40.2,52.3z"/>
	<path class="st0" d="M37.2,42.2c-0.5,0-1,0-1.5,0c-0.2,0-0.2-0.1-0.2-0.2c-0.2-0.5-0.3-0.9-0.5-1.4c0-0.2-0.1-0.2-0.3-0.2
		c-0.9,0-1.9,0-2.8,0c-0.2,0-0.2,0-0.3,0.2c-0.2,0.5-0.3,1-0.5,1.4c0,0.1-0.1,0.2-0.3,0.2c-0.4,0-0.7,0-1.1,0
		c-0.2,0-0.2-0.1-0.2-0.3c0.7-1.8,1.3-3.6,2-5.4c0.3-0.8,0.6-1.7,0.9-2.5c0.1-0.2,0.2-0.3,0.5-0.3c0.3,0,0.6,0,1,0
		c0.1,0,0.2,0,0.2,0.2C35.2,36.6,36.2,39.4,37.2,42.2C37.2,42.1,37.2,42.1,37.2,42.2z M33.3,35.7C33.3,35.7,33.3,35.7,33.3,35.7
		c-0.4,1.1-0.8,2.1-1.2,3.2c0,0.1,0,0.1,0.1,0.1c0.7,0,1.3,0,2,0c0.1,0,0.2-0.1,0.1-0.2c-0.1-0.2-0.1-0.3-0.2-0.5
		C33.9,37.4,33.6,36.6,33.3,35.7z"/>
	<path class="st0" d="M30.3,23.3c-6.3,0-11.4-5.1-11.4-11.4c0-6.4,5.1-11.5,11.4-11.5c6.3,0,11.4,5.1,11.4,11.5
		C41.8,18.1,36.6,23.3,30.3,23.3z M30.3,22.9c6.1,0,11.1-5,11.1-11.1c0-6.1-5-11.1-11.1-11.1c-6.1,0-11.1,5-11.1,11.1
		C19.2,18,24.2,23,30.3,22.9z"/>
	<path class="st0" d="M15.4,37.9c0-1.3,0-2.6,0-4c0-0.2,0-0.3,0.3-0.3c0.3,0,0.6,0,1,0c0.3,0,0.4,0.1,0.4,0.3c0,2.1,0,4.3,0,6.4
		c0,0.3,0.1,0.4,0.3,0.4c1.2,0,2.4,0,3.5,0c0.2,0,0.3,0,0.3,0.3c0,0.3,0,0.6,0,0.9c0,0.2,0,0.2-0.2,0.2c-1.8,0-3.6,0-5.4,0
		c-0.2,0-0.2-0.1-0.2-0.3C15.4,40.6,15.4,39.2,15.4,37.9z"/>
	<path class="st0" d="M30.8,9.3c0,0.7,0,1.5,0,2.2c0,0.2,0.1,0.3,0.3,0.3c1.5,0,2.9,0,4.4,0c0.3,0,0.3,0.1,0.3,0.3
		c0,0.7,0,0.7-0.7,0.7c-1.3,0-2.7,0-4,0c-0.3,0-0.3,0.1-0.3,0.3c0,1.5,0,2.9,0,4.4c0,0.2-0.1,0.3-0.3,0.3c-0.7,0-0.7,0-0.7-0.7
		c0-1.3,0-2.6,0-4c0-0.3-0.1-0.3-0.3-0.3c-1.4,0-2.9,0-4.3,0c-0.3,0-0.3-0.1-0.3-0.3c0-0.7,0-0.7,0.7-0.7c1.3,0,2.6,0,3.9,0
		c0.4,0,0.4,0,0.4-0.4c0-1.4,0-2.9,0-4.3c0-0.3,0.1-0.3,0.3-0.3c0.7,0,0.7,0,0.7,0.6C30.8,8.1,30.8,8.7,30.8,9.3z"/>
</g>
</svg>
