<svg xmlns="http://www.w3.org/2000/svg" xmlns:xlink="http://www.w3.org/1999/xlink" preserveAspectRatio="xMidYMid" width="494" height="43.031" viewBox="0 0 494 43.031">
  <defs>
    <style>
      .cls-1 {
        fill: #fff;
        filter: url(#color-overlay-1);
        fill-rule: evenodd;
      }
    </style>

    <filter id="color-overlay-1" filterUnits="userSpaceOnUse">
      <feFlood flood-color="#29292b"/>
      <feComposite operator="in" in2="SourceGraphic"/>
      <feBlend in2="SourceGraphic" result="solidFill"/>
    </filter>
  </defs>
  <path d="M493.382,15.654 C492.982,16.841 492.387,17.953 491.616,18.961 C490.541,20.365 489.209,21.470 487.657,22.242 C486.105,23.014 484.433,23.405 482.684,23.405 L468.230,23.410 L468.230,19.629 L482.678,19.629 C483.819,19.629 484.912,19.380 485.929,18.888 C486.950,18.396 487.833,17.693 488.552,16.798 C489.097,16.121 489.522,15.356 489.818,14.520 C490.110,13.691 490.258,12.825 490.258,11.949 C490.258,11.015 490.093,10.098 489.769,9.227 C489.442,8.353 488.969,7.555 488.361,6.855 C487.655,6.039 486.767,5.371 485.794,4.923 C484.809,4.470 483.761,4.239 482.678,4.239 L471.903,4.234 L468.220,0.461 L482.684,0.461 C484.226,0.461 485.716,0.768 487.114,1.374 C488.509,1.980 489.760,2.860 490.833,3.994 C491.845,5.064 492.632,6.298 493.171,7.660 C493.713,9.025 493.987,10.467 493.987,11.946 C493.987,13.217 493.784,14.464 493.382,15.654 ZM460.986,0.461 L464.708,0.461 L464.708,42.577 L460.986,42.577 L460.986,0.461 ZM448.437,38.474 C446.989,39.933 445.313,41.068 443.453,41.849 C441.594,42.628 439.620,43.023 437.586,43.023 C435.696,43.023 433.846,42.675 432.086,41.989 C430.325,41.302 428.718,40.303 427.309,39.017 C425.687,37.538 424.413,35.760 423.522,33.738 C422.631,31.711 422.179,29.564 422.179,27.355 L422.179,0.461 L425.900,0.461 L425.900,27.355 C425.900,28.938 426.197,30.467 426.784,31.902 C427.372,33.344 428.228,34.642 429.329,35.760 C430.426,36.879 431.701,37.749 433.116,38.346 C435.903,39.523 439.132,39.543 441.938,38.394 C443.325,37.828 444.579,37.005 445.669,35.945 C446.830,34.816 447.733,33.497 448.353,32.025 C448.973,30.558 449.286,28.987 449.286,27.355 L449.286,0.461 L453.002,0.461 L453.002,27.355 C453.002,29.448 452.605,31.473 451.822,33.377 C451.041,35.280 449.903,36.995 448.437,38.474 ZM410.021,36.722 C408.032,38.743 405.723,40.315 403.156,41.395 C400.595,42.476 397.871,43.023 395.061,43.023 C392.253,43.023 389.531,42.476 386.973,41.395 C384.408,40.314 382.100,38.742 380.114,36.722 C378.123,34.698 376.575,32.353 375.515,29.752 C374.453,27.154 373.914,24.388 373.914,21.532 C373.914,18.676 374.451,15.907 375.512,13.301 C376.578,10.691 378.126,8.343 380.114,6.323 C382.100,4.301 384.408,2.725 386.973,1.642 C389.531,0.561 392.251,0.013 395.061,0.013 C397.872,0.013 400.595,0.561 403.156,1.642 C405.723,2.724 408.032,4.299 410.021,6.323 C412.013,8.346 413.561,10.695 414.623,13.300 C415.688,15.910 416.228,18.681 416.228,21.532 C416.228,24.381 415.688,27.147 414.623,29.753 C413.560,32.357 412.013,34.702 410.021,36.722 ZM411.186,14.748 C410.313,12.603 409.037,10.667 407.393,8.995 C405.747,7.324 403.843,6.025 401.734,5.135 C399.621,4.245 397.377,3.794 395.061,3.794 C392.748,3.794 390.505,4.245 388.394,5.135 C386.287,6.026 384.386,7.324 382.744,8.995 C381.103,10.666 379.827,12.602 378.952,14.748 C378.076,16.895 377.632,19.178 377.632,21.532 C377.632,23.883 378.076,26.161 378.952,28.305 C379.827,30.449 381.103,32.382 382.744,34.051 C384.386,35.718 386.286,37.014 388.394,37.903 C392.618,39.683 397.512,39.681 401.734,37.903 C403.847,37.014 405.752,35.718 407.393,34.050 C409.037,32.381 410.312,30.448 411.186,28.305 C412.064,26.161 412.509,23.883 412.509,21.532 C412.509,19.178 412.064,16.895 411.186,14.748 ZM366.433,42.577 L353.067,23.407 L344.162,23.410 L344.162,19.629 L358.505,19.629 C359.646,19.629 360.738,19.380 361.756,18.888 C362.777,18.396 363.659,17.693 364.378,16.798 C364.923,16.121 365.350,15.356 365.644,14.520 C365.937,13.691 366.084,12.825 366.084,11.949 C366.084,11.015 365.920,10.098 365.596,9.227 C365.269,8.353 364.796,7.555 364.188,6.855 C363.481,6.039 362.594,5.371 361.621,4.923 C360.635,4.470 359.587,4.239 358.505,4.239 L347.844,4.234 L344.163,0.461 L358.510,0.461 C360.052,0.461 361.543,0.768 362.941,1.374 C364.335,1.980 365.586,2.860 366.659,3.994 C367.672,5.064 368.458,6.298 368.997,7.660 C369.539,9.025 369.814,10.467 369.814,11.946 C369.814,13.217 369.610,14.464 369.208,15.654 C368.808,16.841 368.214,17.953 367.442,18.961 C366.367,20.365 365.035,21.470 363.483,22.242 C361.933,23.014 360.259,23.405 358.511,23.405 L357.603,23.406 L371.008,42.576 L366.433,42.577 ZM336.918,0.461 L340.640,0.461 L340.640,42.577 L336.918,42.577 L336.918,0.461 ZM323.991,37.202 C322.028,39.072 319.776,40.525 317.298,41.520 C314.820,42.518 312.204,43.024 309.518,43.024 C307.046,43.024 304.614,42.586 302.288,41.723 C299.961,40.861 297.821,39.604 295.928,37.986 C293.536,35.942 291.658,33.458 290.347,30.602 C289.034,27.743 288.369,24.691 288.369,21.532 C288.369,18.268 289.070,15.134 290.451,12.216 C291.830,9.300 293.804,6.782 296.316,4.731 C298.176,3.215 300.265,2.038 302.524,1.231 C308.004,-0.731 314.188,-0.267 319.330,2.488 C322.351,4.108 324.979,6.479 326.930,9.346 L327.300,9.890 L326.822,10.351 L324.340,12.098 L323.708,11.181 C322.094,8.913 319.938,7.034 317.477,5.754 C313.171,3.511 308.028,3.192 303.504,4.888 C301.574,5.611 299.798,6.669 298.225,8.032 C296.283,9.719 294.760,11.761 293.697,14.103 C292.631,16.445 292.091,18.944 292.091,21.532 C292.091,24.148 292.643,26.668 293.728,29.026 C294.814,31.384 296.371,33.436 298.353,35.123 C299.908,36.446 301.667,37.475 303.581,38.182 C307.622,39.673 312.106,39.570 316.018,38.000 C318.075,37.175 319.933,35.970 321.543,34.420 C323.121,32.898 324.388,31.111 325.307,29.109 C326.129,27.316 326.646,25.406 326.847,23.425 L311.426,23.425 L307.698,19.639 L330.691,19.639 L330.691,21.532 C330.691,24.474 330.100,27.345 328.936,30.064 C327.773,32.785 326.109,35.188 323.991,37.202 ZM250.889,38.794 L268.387,38.794 L268.387,42.577 L247.210,42.577 L250.889,38.794 ZM247.320,19.638 L268.387,19.638 L268.387,23.421 L247.320,23.421 L247.320,19.638 ZM247.210,0.461 L268.386,0.461 L268.386,4.245 L250.882,4.245 L247.210,0.461 ZM240.076,0.461 L243.799,0.461 L243.799,42.577 L240.076,42.577 L240.076,0.461 ZM229.058,42.577 L215.693,23.407 L206.787,23.410 L206.787,19.629 L221.130,19.629 C222.270,19.629 223.364,19.380 224.383,18.888 C225.403,18.396 226.285,17.693 227.004,16.798 C227.549,16.121 227.975,15.356 228.270,14.520 C228.562,13.690 228.710,12.823 228.710,11.949 C228.710,11.015 228.545,10.098 228.221,9.227 C227.895,8.353 227.421,7.555 226.813,6.855 C226.106,6.039 225.219,5.371 224.247,4.923 C223.262,4.470 222.212,4.239 221.130,4.239 L210.414,4.234 L206.734,0.461 L221.136,0.461 C222.678,0.461 224.168,0.768 225.566,1.374 C226.960,1.980 228.211,2.860 229.285,3.994 C230.298,5.066 231.084,6.299 231.624,7.660 C232.164,9.025 232.439,10.467 232.439,11.946 C232.439,13.217 232.236,14.464 231.835,15.654 C231.433,16.843 230.839,17.956 230.067,18.962 C228.993,20.366 227.660,21.470 226.109,22.242 C224.557,23.014 222.884,23.405 221.136,23.405 L220.230,23.406 L233.634,42.576 L229.058,42.577 ZM199.544,0.461 L203.265,0.461 L203.265,42.577 L199.544,42.577 L199.544,0.461 ZM155.516,0.458 L192.897,0.458 L192.897,4.242 L155.516,4.242 L155.516,0.458 ZM144.520,42.577 L120.407,7.955 L120.407,42.577 L116.688,42.577 L116.688,0.461 L119.709,0.461 L149.095,42.575 L146.345,42.577 L144.520,42.577 ZM145.309,0.461 L149.031,0.461 L149.031,36.723 L145.328,31.420 L145.309,0.461 ZM90.461,38.794 L107.958,38.794 L107.958,42.577 L86.781,42.577 L90.461,38.794 ZM86.892,19.638 L107.958,19.638 L107.958,23.421 L86.892,23.421 L86.892,19.638 ZM86.781,0.461 L107.958,0.461 L107.958,4.245 L90.454,4.245 L86.781,0.461 ZM79.647,0.461 L83.370,0.461 L83.370,42.577 L79.647,42.577 L79.647,0.461 ZM45.402,35.014 C46.971,36.371 48.745,37.428 50.679,38.153 C54.816,39.701 59.427,39.575 63.415,37.896 C65.536,36.999 67.442,35.697 69.077,34.023 L69.565,33.515 L70.065,33.941 L72.240,36.101 L71.711,36.652 C69.716,38.696 67.400,40.287 64.827,41.378 C62.255,42.469 59.518,43.022 56.691,43.022 C54.275,43.022 51.893,42.603 49.606,41.774 C47.320,40.946 45.212,39.739 43.339,38.186 C40.877,36.142 38.941,33.639 37.585,30.748 C36.233,27.854 35.546,24.755 35.546,21.533 C35.546,17.878 36.457,14.272 38.182,11.107 C39.907,7.940 42.433,5.237 45.486,3.289 C47.154,2.222 48.960,1.401 50.856,0.846 C52.751,0.293 54.714,0.012 56.691,0.012 C59.518,0.012 62.255,0.566 64.827,1.658 C67.400,2.748 69.716,4.338 71.711,6.383 L72.169,6.852 L71.779,7.392 L69.593,9.602 L69.136,9.101 C67.436,7.357 65.527,6.047 63.405,5.147 C61.283,4.250 59.025,3.794 56.691,3.794 C54.956,3.794 53.244,4.053 51.597,4.565 C49.952,5.078 48.390,5.838 46.955,6.824 C44.594,8.452 42.639,10.661 41.303,13.213 C39.969,15.764 39.264,18.641 39.264,21.533 C39.264,24.114 39.804,26.610 40.870,28.952 C41.936,31.292 43.460,33.332 45.402,35.014 ZM8.763,15.516 C9.586,16.040 10.566,16.527 11.757,17.003 C12.971,17.489 14.435,17.977 16.232,18.496 C17.630,18.899 19.278,19.390 20.905,19.991 C22.611,20.621 24.036,21.275 25.257,21.992 L25.258,21.992 C27.202,23.133 28.676,24.493 29.642,26.033 C30.619,27.591 31.115,29.392 31.115,31.387 C31.115,33.341 30.648,35.123 29.727,36.687 C28.810,38.242 27.457,39.553 25.707,40.581 C24.393,41.357 22.856,41.965 21.139,42.389 C19.429,42.810 17.646,43.023 15.840,43.023 C14.090,43.023 12.380,42.822 10.759,42.423 C9.136,42.025 7.620,41.432 6.249,40.660 C5.089,40.004 4.030,39.212 3.099,38.307 C2.170,37.398 1.381,36.384 0.758,35.293 L0.008,33.984 L3.263,32.198 L3.971,33.411 C4.424,34.193 4.984,34.914 5.638,35.556 C6.294,36.200 7.060,36.778 7.913,37.276 C9.014,37.915 10.250,38.408 11.585,38.741 C14.196,39.394 17.272,39.415 20.068,38.754 C21.422,38.436 22.664,37.970 23.662,37.411 C24.907,36.712 25.853,35.848 26.473,34.844 C27.086,33.849 27.396,32.685 27.396,31.387 C27.396,29.851 26.963,28.556 26.070,27.426 C25.149,26.258 23.741,25.258 21.765,24.367 C20.918,23.985 19.948,23.614 18.801,23.230 C17.772,22.887 16.724,22.572 15.696,22.263 L15.069,22.079 C13.702,21.668 12.176,21.209 10.670,20.632 C8.905,19.957 7.478,19.236 6.307,18.429 C4.855,17.425 3.756,16.257 3.038,14.955 C2.313,13.643 1.944,12.143 1.944,10.496 C1.944,8.482 2.514,6.675 3.635,5.128 C4.480,3.964 5.624,2.966 7.032,2.160 C8.243,1.467 9.623,0.930 11.135,0.562 C13.870,-0.102 16.909,-0.183 19.828,0.428 C21.145,0.706 22.425,1.117 23.631,1.650 C24.661,2.106 25.643,2.650 26.551,3.266 C27.462,3.887 28.315,4.592 29.084,5.361 L30.148,6.432 L27.480,9.012 L26.477,8.021 C25.903,7.448 25.271,6.923 24.599,6.459 C23.921,5.989 23.188,5.572 22.424,5.220 C21.418,4.757 20.343,4.399 19.230,4.157 C16.854,3.641 14.289,3.710 12.245,4.133 C11.170,4.354 10.191,4.689 9.336,5.129 C8.161,5.731 7.242,6.514 6.605,7.457 C5.981,8.379 5.665,9.402 5.665,10.496 C5.665,11.543 5.905,12.446 6.398,13.256 C6.904,14.084 7.678,14.823 8.763,15.516 ZM176.068,42.577 L172.347,42.577 L172.347,7.826 L176.068,7.826 L176.068,42.577 Z" class="cls-1"/>
</svg>
