<?xml version="1.0" encoding="utf-8"?>
<!-- Generator: Adobe Illustrator 19.0.0, SVG Export Plug-In . SVG Version: 6.00 Build 0)  -->
<svg version="1.1" id="Layer_1" xmlns="http://www.w3.org/2000/svg" xmlns:xlink="http://www.w3.org/1999/xlink" x="0px" y="0px"
	 viewBox="20 20 20 20" style="enable-background:new 20 20 20 20;" xml:space="preserve">
<style type="text/css">
	.st0{fill:#9A9999;}
</style>
<g>
	<path class="st0" d="M33.8,27.2c0,3.6-3,6.5-6.6,6.5c-3.6,0-6.6-3-6.6-6.6c0-3.6,3-6.5,6.7-6.5C30.8,20.7,33.8,23.6,33.8,27.2z
		 M31.9,27.2c0-2.6-2.1-4.7-4.7-4.7s-4.7,2.1-4.7,4.7c0,2.6,2.1,4.7,4.7,4.7S31.9,29.8,31.9,27.2z"/>
	<path class="st0" d="M39.4,38c-0.1,0.1-0.1,0.1-0.1,0.1c-0.4,0.4-0.7,0.7-1.2,1.2c-0.1,0.1-0.1,0.1-0.2,0c-1.7-1.7-3.4-3.4-5.1-5.1
		c-0.1-0.1-0.1-0.1,0-0.2c0.4-0.4,0.7-0.7,1.1-1.1c0.1-0.1,0.1-0.1,0.2,0c0.2,0.2,0.5,0.5,0.7,0.7c1.4,1.4,2.9,2.9,4.3,4.3
		C39.3,37.9,39.3,38,39.4,38z"/>
</g>
</svg>
