<?xml version="1.0" encoding="utf-8"?>
<!-- Generator: Adobe Illustrator 19.0.0, SVG Export Plug-In . SVG Version: 6.00 Build 0)  -->
<svg version="1.1" id="Layer_1" xmlns="http://www.w3.org/2000/svg" xmlns:xlink="http://www.w3.org/1999/xlink" x="0px" y="0px"
	 viewBox="0 0 60 60" style="enable-background:new 0 0 60 60;" xml:space="preserve">
<style type="text/css">
	.st0{fill:#FFFFFF;}
</style>
<g>
	<path class="st0" d="M30.1,59c-16,0-28.9-13-28.9-29c0-16,13-28.9,29-28.8c15.9,0,28.8,13,28.8,29C59,46.1,46,59,30.1,59z
		 M30.1,1.5C14.3,1.5,1.5,14.3,1.5,30c0,15.8,12.7,28.6,28.5,28.6c15.9,0,28.7-12.7,28.7-28.6C58.6,14.3,45.9,1.5,30.1,1.5z"/>
	<path class="st0" d="M25.5,45.4c-0.1,0-0.1-0.1-0.2-0.1c-0.6-0.6-1.3-1.3-1.9-1.9c-0.2-0.2,0-0.2,0-0.3c1.5-1.5,3-3,4.5-4.5
		c2.6-2.6,5.2-5.1,7.7-7.7c0.1-0.1,0.2-0.3,0.2-0.4c0.1-0.7-0.2-1.2-0.7-1.7c-3.9-3.9-7.8-7.8-11.7-11.7c-0.2-0.2-0.2-0.2,0-0.4
		c0.6-0.6,1.2-1.2,1.8-1.8c0.2-0.2,0.3-0.2,0.4,0c4.1,4.1,8.1,8.1,12.2,12.2c0.9,0.9,1.8,1.9,2.8,2.8c0.1,0.1,0.2,0.2,0,0.4
		c-5,5-10,10-15,14.9C25.6,45.3,25.6,45.3,25.5,45.4z"/>
</g>
</svg>
