<?xml version="1.0" encoding="utf-8"?>
<!-- Generator: Adobe Illustrator 21.0.0, SVG Export Plug-In . SVG Version: 6.00 Build 0)  -->
<svg version="1.1" id="Layer_1" xmlns="http://www.w3.org/2000/svg" xmlns:xlink="http://www.w3.org/1999/xlink" x="0px" y="0px"
	 viewBox="0 0 226.8 28.3" style="enable-background:new 0 0 226.8 28.3;" xml:space="preserve">
<style type="text/css">
	.st0{fill:#FDFEFE;}
</style>
<g>
	<path class="st0" d="M15.6,13.4L15.6,13.4c-0.5-0.3-1.2-0.6-1.9-0.9c-0.7-0.3-1.4-0.5-2.1-0.6c-0.8-0.2-1.4-0.4-2-0.6
		c-0.5-0.2-1-0.4-1.3-0.6c-0.5-0.3-0.8-0.6-1-1C7.1,9.3,7,8.9,7,8.4C7,8,7.1,7.5,7.4,7.1c0.3-0.4,0.7-0.7,1.2-1
		C9,5.9,9.4,5.8,9.9,5.7c0.9-0.2,2-0.2,3.1,0c0.5,0.1,1,0.3,1.4,0.5c0.3,0.2,0.7,0.3,1,0.5c0.3,0.2,0.6,0.4,0.8,0.7l0.4,0.4l1.2-1.1
		l-0.5-0.5c-0.3-0.3-0.7-0.6-1.1-0.9c-0.4-0.3-0.8-0.5-1.3-0.7c-0.5-0.2-1.1-0.4-1.7-0.5c-1.3-0.3-2.6-0.2-3.8,0.1
		C8.7,4.3,8.1,4.5,7.6,4.8C6.9,5.2,6.4,5.6,6.1,6.1C5.6,6.8,5.3,7.6,5.3,8.4c0,0.7,0.2,1.4,0.5,1.9c0.3,0.6,0.8,1.1,1.4,1.5
		c0.5,0.4,1.1,0.7,1.9,1c0.7,0.3,1.3,0.4,1.9,0.6l0.3,0.1c0.5,0.1,0.9,0.3,1.4,0.4c0.5,0.2,0.9,0.3,1.3,0.5c0.9,0.4,1.5,0.8,1.9,1.3
		c0.4,0.5,0.6,1.1,0.6,1.7c0,0.6-0.1,1.1-0.4,1.5c-0.3,0.4-0.7,0.8-1.2,1.1c-0.4,0.2-1,0.4-1.6,0.6c-1.2,0.3-2.6,0.3-3.7,0
		C9,20.5,8.4,20.3,8,20c-0.4-0.2-0.7-0.5-1-0.7c-0.3-0.3-0.5-0.6-0.7-0.9l-0.3-0.5l-1.4,0.8l0.3,0.6c0.3,0.5,0.6,0.9,1,1.3
		c0.4,0.4,0.9,0.7,1.4,1c0.6,0.3,1.3,0.6,2,0.8c0.7,0.2,1.5,0.3,2.2,0.3c0.8,0,1.6-0.1,2.3-0.3c0.8-0.2,1.4-0.4,2-0.8
		c0.8-0.4,1.4-1,1.8-1.7c0.4-0.7,0.6-1.5,0.6-2.3c0-0.9-0.2-1.6-0.6-2.3C17.1,14.5,16.5,13.9,15.6,13.4z"/>
	<path class="st0" d="M35.1,18.4l-0.2,0.2c-0.7,0.7-1.6,1.3-2.5,1.7c-1.8,0.7-3.8,0.8-5.6,0.1c-0.9-0.3-1.6-0.8-2.3-1.4
		c-0.9-0.7-1.5-1.6-2-2.6c-0.5-1-0.7-2.1-0.7-3.2c0-1.3,0.3-2.5,0.9-3.6c0.6-1.1,1.5-2.1,2.5-2.8c0.6-0.4,1.3-0.8,2-1
		c0.7-0.2,1.5-0.3,2.2-0.3c1,0,2,0.2,3,0.6c0.9,0.4,1.8,1,2.5,1.7L35.2,8l1-1l0.2-0.2l-0.2-0.2c-0.9-0.9-1.9-1.6-3-2
		c-1.1-0.5-2.3-0.7-3.6-0.7c-0.9,0-1.7,0.1-2.6,0.4c-0.8,0.2-1.6,0.6-2.4,1.1c-1.3,0.8-2.5,2-3.2,3.4c-0.8,1.4-1.2,2.9-1.2,4.5
		c0,1.4,0.3,2.7,0.9,4c0.6,1.3,1.5,2.3,2.5,3.2c0.8,0.7,1.8,1.2,2.8,1.6c1,0.4,2.1,0.5,3.1,0.5c1.2,0,2.5-0.2,3.6-0.7
		c1.1-0.5,2.2-1.2,3-2.1l0.2-0.2l-1-0.9L35.1,18.4z"/>
	<polygon class="st0" points="55.9,4.1 55.9,22.3 57.6,22.3 57.6,7.3 68.2,22.3 69,22.3 70.2,22.3 57.3,4.1 	"/>
	<polygon class="st0" points="70.2,19.8 70.2,4.1 68.5,4.1 68.6,17.5 	"/>
	<rect x="39.6" y="4.1" class="st0" width="1.6" height="18.3"/>
	<polygon class="st0" points="42.7,22.3 52.1,22.3 52.1,20.7 44.4,20.7 	"/>
	<rect x="42.8" y="12.4" class="st0" width="9.3" height="1.6"/>
	<polygon class="st0" points="52.1,5.7 52.1,4.1 42.7,4.1 44.4,5.7 	"/>
	<rect x="73" y="4.1" class="st0" width="16.5" height="1.6"/>
	<rect x="80.5" y="7.3" class="st0" width="1.6" height="15.1"/>
	<path class="st0" d="M102,14c0.8,0,1.5-0.2,2.2-0.5c0.7-0.3,1.3-0.8,1.7-1.4c0.3-0.4,0.6-0.9,0.8-1.4c0.2-0.5,0.3-1.1,0.3-1.6
		c0-0.6-0.1-1.3-0.4-1.9c-0.2-0.6-0.6-1.1-1-1.6c-0.5-0.5-1-0.9-1.6-1.1c-0.6-0.3-1.3-0.4-2-0.4h-6.4l1.6,1.6l4.7,0
		c0.5,0,0.9,0.1,1.4,0.3c0.4,0.2,0.8,0.5,1.1,0.8c0.3,0.3,0.5,0.6,0.6,1c0.1,0.4,0.2,0.8,0.2,1.2c0,0.4-0.1,0.8-0.2,1.1
		c-0.1,0.4-0.3,0.7-0.6,1c-0.3,0.4-0.7,0.7-1.2,0.9c-0.4,0.2-0.9,0.3-1.4,0.3h-6.3V14l3.9,0l5.9,8.3l2,0l-5.9-8.3L102,14z"/>
	<rect x="92.5" y="4.1" class="st0" width="1.6" height="18.3"/>
	<path class="st0" d="M185.3,6.6c-0.9-0.9-1.9-1.6-3-2c-1.1-0.5-2.3-0.7-3.6-0.7c-1.2,0-2.4,0.2-3.6,0.7c-1.1,0.5-2.1,1.2-3,2
		c-0.9,0.9-1.6,1.9-2,3c-0.5,1.1-0.7,2.3-0.7,3.6c0,1.2,0.2,2.4,0.7,3.6c0.5,1.1,1.1,2.1,2,3c0.9,0.9,1.9,1.6,3,2
		c1.1,0.5,2.3,0.7,3.6,0.7c1.2,0,2.4-0.2,3.6-0.7c1.1-0.5,2.2-1.2,3-2c0.9-0.9,1.6-1.9,2-3c0.5-1.1,0.7-2.3,0.7-3.6
		c0-1.2-0.2-2.4-0.7-3.6C186.8,8.5,186.2,7.5,185.3,6.6z M186.4,13.2c0,1-0.2,2-0.6,2.9c-0.4,0.9-0.9,1.8-1.7,2.5
		c-0.7,0.7-1.6,1.3-2.5,1.7c-1.9,0.8-4,0.8-5.9,0c-0.9-0.4-1.8-0.9-2.5-1.7c-0.7-0.7-1.3-1.6-1.7-2.5c-0.4-0.9-0.6-1.9-0.6-2.9
		c0-1,0.2-2,0.6-2.9c0.4-0.9,0.9-1.8,1.7-2.5c0.7-0.7,1.6-1.3,2.5-1.7c0.9-0.4,1.9-0.6,2.9-0.6c1,0,2,0.2,2.9,0.6
		c0.9,0.4,1.8,0.9,2.5,1.7c0.7,0.7,1.3,1.6,1.7,2.5C186.2,11.2,186.4,12.2,186.4,13.2z"/>
	<path class="st0" d="M202.6,15.7c0,0.7-0.1,1.4-0.4,2c-0.3,0.6-0.7,1.2-1.2,1.7c-0.5,0.5-1,0.8-1.6,1.1c-1.2,0.5-2.7,0.5-3.9,0
		c-0.6-0.3-1.2-0.6-1.7-1.1c-0.5-0.5-0.9-1-1.1-1.7c-0.3-0.6-0.4-1.3-0.4-2V4.1h-1.6v11.7c0,1,0.2,1.9,0.6,2.8
		c0.4,0.9,1,1.6,1.7,2.3c0.6,0.6,1.3,1,2.1,1.3c0.8,0.3,1.6,0.4,2.4,0.4c0.9,0,1.8-0.2,2.6-0.5c0.8-0.3,1.6-0.8,2.2-1.5
		c0.6-0.6,1.1-1.4,1.5-2.2c0.3-0.8,0.5-1.7,0.5-2.6V4.1h-1.6V15.7z"/>
	<rect x="153" y="4.1" class="st0" width="1.6" height="18.3"/>
	<rect x="207.7" y="4.1" class="st0" width="1.6" height="18.3"/>
	<path class="st0" d="M141.8,14h6.8c-0.1,0.9-0.3,1.7-0.7,2.5c-0.4,0.9-1,1.6-1.7,2.3c-0.7,0.7-1.5,1.2-2.4,1.6
		c-1.7,0.7-3.7,0.7-5.5,0.1c-0.8-0.3-1.6-0.8-2.3-1.3c-0.9-0.7-1.6-1.6-2-2.6c-0.5-1-0.7-2.1-0.7-3.3c0-1.1,0.2-2.2,0.7-3.2
		c0.5-1,1.1-1.9,2-2.6c0.7-0.6,1.5-1.1,2.3-1.4c2-0.7,4.3-0.6,6.2,0.4c1.1,0.6,2,1.4,2.7,2.4l0.3,0.4l1.1-0.8l0.2-0.2l-0.2-0.2
		c-0.9-1.2-2-2.3-3.4-3c-2.3-1.2-5-1.4-7.4-0.5c-1,0.3-1.9,0.9-2.7,1.5c-1.1,0.9-2,2-2.6,3.2c-0.6,1.3-0.9,2.6-0.9,4
		c0,1.4,0.3,2.7,0.9,3.9c0.6,1.2,1.4,2.3,2.5,3.2c0.8,0.7,1.8,1.2,2.8,1.6c1,0.4,2.1,0.6,3.2,0.6c1.2,0,2.3-0.2,3.4-0.7
		c1.1-0.4,2.1-1.1,3-1.9c0.9-0.9,1.7-1.9,2.2-3.1c0.5-1.2,0.8-2.4,0.8-3.7v-0.8h-10.1L141.8,14z"/>
	<rect x="110.3" y="4.1" class="st0" width="1.6" height="18.3"/>
	<polygon class="st0" points="113.5,22.3 122.8,22.3 122.8,20.7 115.1,20.7 	"/>
	<rect x="113.5" y="12.4" class="st0" width="9.3" height="1.6"/>
	<polygon class="st0" points="122.8,5.7 122.8,4.1 113.5,4.1 115.1,5.7 	"/>
	<path class="st0" d="M162.6,14c0.8,0,1.5-0.2,2.2-0.5c0.7-0.3,1.3-0.8,1.7-1.4c0.3-0.4,0.6-0.9,0.8-1.4c0.2-0.5,0.3-1.1,0.3-1.6
		c0-0.6-0.1-1.3-0.4-1.9c-0.2-0.6-0.6-1.1-1-1.6c-0.5-0.5-1-0.9-1.6-1.1c-0.6-0.3-1.3-0.4-2-0.4h-6.3l1.6,1.6l4.7,0
		c0.5,0,0.9,0.1,1.4,0.3c0.4,0.2,0.8,0.5,1.1,0.8c0.3,0.3,0.5,0.7,0.6,1c0.1,0.4,0.2,0.8,0.2,1.2c0,0.4-0.1,0.8-0.2,1.1
		c-0.1,0.4-0.3,0.7-0.6,1c-0.3,0.4-0.7,0.7-1.2,0.9c-0.4,0.2-0.9,0.3-1.4,0.3h-6.3V14l3.9,0l5.9,8.3l2,0l-5.9-8.3L162.6,14z"/>
	<path class="st0" d="M221.9,7.2c-0.2-0.6-0.6-1.1-1-1.6c-0.5-0.5-1-0.9-1.6-1.1c-0.6-0.3-1.3-0.4-2-0.4h-6.4l1.6,1.6l4.8,0
		c0.5,0,0.9,0.1,1.4,0.3c0.4,0.2,0.8,0.5,1.1,0.8c0.3,0.3,0.5,0.7,0.6,1c0.1,0.4,0.2,0.8,0.2,1.2c0,0.4-0.1,0.8-0.2,1.1
		c-0.1,0.4-0.3,0.7-0.6,1c-0.3,0.4-0.7,0.7-1.2,0.9c-0.4,0.2-0.9,0.3-1.4,0.3h-6.4V14l6.4,0c0.8,0,1.5-0.2,2.2-0.5
		c0.7-0.3,1.3-0.8,1.7-1.4c0.3-0.4,0.6-0.9,0.8-1.4c0.2-0.5,0.3-1.1,0.3-1.6C222.3,8.4,222.2,7.8,221.9,7.2z"/>
</g>
</svg>
