<?xml version="1.0" encoding="utf-8"?>
<!-- Generator: Adobe Illustrator 19.0.0, SVG Export Plug-In . SVG Version: 6.00 Build 0)  -->
<svg version="1.1" id="Layer_1" xmlns="http://www.w3.org/2000/svg" xmlns:xlink="http://www.w3.org/1999/xlink" x="0px" y="0px"
	 viewBox="0 0 60 60" style="enable-background:new 0 0 60 60;" xml:space="preserve">
<style type="text/css">
	.st0{fill:#010101;}
</style>
<g>
	<path class="st0" d="M40.9,21.9c0,10.6-8.7,19.2-19.4,19.2C10.8,41,2.2,32.4,2.2,21.7C2.3,11.1,11,2.6,21.8,2.6
		C32.3,2.6,40.9,11.4,40.9,21.9z M35.4,21.8c0-7.6-6.2-13.7-13.8-13.7C14,8.1,7.8,14.3,7.8,21.8c0,7.6,6.2,13.8,13.8,13.8
		C29.2,35.6,35.4,29.4,35.4,21.8z"/>
	<path class="st0" d="M57.5,53.6c-0.2,0.2-0.2,0.3-0.3,0.4c-1.1,1.1-2.2,2.2-3.4,3.4c-0.2,0.3-0.4,0.2-0.6,0c-5-5-10-10-15-15
		c-0.2-0.2-0.3-0.3,0-0.6c1.1-1.1,2.2-2.2,3.3-3.3c0.3-0.3,0.4-0.2,0.6,0c0.7,0.7,1.4,1.4,2.2,2.2c4.2,4.2,8.5,8.5,12.7,12.7
		C57.2,53.4,57.3,53.5,57.5,53.6z"/>
</g>
</svg>
