<?xml version="1.0" encoding="utf-8"?>
<!-- Generator: Adobe Illustrator 21.0.0, SVG Export Plug-In . SVG Version: 6.00 Build 0)  -->
<svg version="1.1" id="Layer_1" xmlns="http://www.w3.org/2000/svg" xmlns:xlink="http://www.w3.org/1999/xlink" x="0px" y="0px"
	 viewBox="0 0 60 60" style="enable-background:new 0 0 60 60;" xml:space="preserve">
<style type="text/css">
	.st0{fill:#29292B;}
</style>
<g>
	<path class="st0" d="M21.7,53c0,0.8,0.1,1.6,0,2.4c-0.3,1.9-1.4,3-3.2,3.5c-1.4,0.4-2.9,0.3-4.2-0.4c-1.4-0.7-2.1-1.9-2.1-3.5
		c0-1.2,0-2.4,0-3.6c-0.1-2.4,1.6-4.1,3.7-4.5c1.6-0.3,3.1,0,4.4,1c1,0.8,1.4,1.8,1.5,3.1C21.8,51.7,21.8,52.4,21.7,53
		C21.7,53,21.7,53,21.7,53z M14.4,53c0,0.5,0,0.9,0,1.4c0,0.1,0,0.2,0,0.2c0,1.5,0.7,2.3,2.1,2.5c1.8,0.3,3.1-0.7,3.1-2.6
		c0-1.1,0-2.2,0-3.3c0-1.1-0.6-1.9-1.7-2.2c-0.5-0.1-0.9-0.2-1.4-0.1c-1.4,0.2-2.1,1-2.1,2.4C14.4,51.8,14.4,52.4,14.4,53z"/>
	<path class="st0" d="M47,53.1c0,0.6,0.1,1.4,0,2.2c-0.3,1.9-1.4,3-3.2,3.5c-1.5,0.4-2.9,0.3-4.3-0.4c-1.3-0.7-2-1.9-2-3.4
		c0-1.2,0-2.4,0-3.6C37.4,49,39,47.4,41.1,47c1.7-0.3,3.3,0,4.6,1.2c0.8,0.8,1.3,1.7,1.3,2.9C47,51.7,47,52.3,47,53.1z M39.7,53
		c0,0.4,0,0.9,0,1.3c0,0.1,0,0.2,0,0.3c0,1.5,0.7,2.3,2.2,2.5c1.8,0.3,3-0.8,3-2.6c0-1.1,0-2.2,0-3.3c0-1.1-0.6-1.9-1.7-2.2
		c-0.4-0.1-0.9-0.2-1.3-0.1c-1.4,0.1-2.2,1-2.2,2.3C39.6,51.8,39.7,52.4,39.7,53z"/>
	<path class="st0" d="M49.1,53c0-1.8,0-3.7,0-5.5c0-0.3,0.1-0.4,0.4-0.4c1.5,0,3.1,0,4.6,0c1.3,0,2.4,0.4,3.2,1.5
		c0.8,1.2,0.9,2.6,0.2,3.9c-0.6,1.3-1.8,1.9-3.2,1.9c-0.9,0-1.8,0-2.6,0c-0.4,0-0.4,0-0.4,0.5c0,1.2,0,2.4,0,3.6
		c0,0.3-0.1,0.4-0.4,0.4c-0.5,0-0.9,0-1.4,0c-0.3,0-0.4-0.1-0.4-0.4C49.1,56.7,49.1,54.8,49.1,53z M51.3,50.8c0,0.5,0,1,0,1.5
		c0,0.2,0,0.3,0.2,0.3c0.9,0,1.8,0.1,2.7-0.1c1-0.1,1.6-0.8,1.6-1.8c0-1-0.6-1.6-1.6-1.8c-0.9-0.1-1.7,0-2.6,0
		c-0.2,0-0.3,0.1-0.2,0.3C51.3,49.8,51.3,50.3,51.3,50.8z"/>
	<path class="st0" d="M30.3,32.7c-8.9,0-15.9-7.2-15.9-16.1c0-8.7,7.2-15.8,16-15.8c8.7,0.1,15.8,7.2,15.7,16
		C46.2,25.7,39,32.8,30.3,32.7z M30.3,32.3c8.5,0,15.5-6.9,15.5-15.4c0-8.6-6.8-15.6-15.4-15.6c-8.5,0-15.5,6.9-15.6,15.4
		C14.8,25.3,21.7,32.3,30.3,32.3z"/>
	<path class="st0" d="M5.4,53.9c0-1.5,0-3,0-4.5C5.4,49,5.4,49,5,49c-0.9,0-1.7,0-2.6,0C2.1,49,2,48.9,2,48.6c0-0.4,0-0.8,0-1.2
		c0-0.2,0.1-0.3,0.3-0.3c2.8,0,5.6,0,8.5,0c0.2,0,0.3,0.1,0.3,0.3c0,0.4,0,0.9,0,1.3c0,0.2-0.1,0.3-0.3,0.3c-0.9,0-1.8,0-2.6,0
		c-0.5,0-0.5,0-0.5,0.5c0,3,0,6,0,9c0,0.5,0,0.5-0.5,0.5c-0.5,0-0.9,0-1.4,0c-0.3,0-0.3-0.1-0.3-0.3C5.5,57,5.4,55.5,5.4,53.9z"/>
	<path class="st0" d="M30.7,53.9c0-1.5,0-3,0-4.5c0-0.3-0.1-0.4-0.4-0.4c-0.9,0-1.8,0-2.6,0c-0.3,0-0.4-0.1-0.4-0.4
		c0-0.4,0-0.8,0-1.2c0-0.2,0.1-0.3,0.3-0.3c2.8,0,5.6,0,8.5,0c0.2,0,0.3,0.1,0.3,0.3c0,0.4,0,0.9,0,1.3c0,0.2-0.1,0.3-0.3,0.3
		c-0.9,0-1.7,0-2.6,0c-0.5,0-0.5,0-0.5,0.5c0,3,0,5.9,0,8.9c0,0.5,0,0.5-0.5,0.5c-0.5,0-0.9,0-1.4,0c-0.3,0-0.3-0.1-0.3-0.3
		C30.7,57,30.7,55.5,30.7,53.9z"/>
	<path class="st0" d="M31.2,11.7c-0.1,0.1,0,0.3,0,0.4c0,4.2,0,8.4,0,12.6c0,0.5,0,0.5-0.5,0.5c-0.3,0-0.6,0-0.9,0
		c-0.2,0-0.3-0.1-0.3-0.3c0-0.1,0-0.2,0-0.3c0-4.1,0-8.3,0-12.4c0-0.1,0-0.3,0-0.5c-0.2,0-0.2,0.1-0.3,0.2c-1.9,1.9-3.9,3.9-5.8,5.8
		c-0.2,0.2-0.3,0.3-0.5,0c-0.2-0.3-0.4-0.5-0.7-0.7c-0.2-0.2-0.2-0.3,0-0.5c1.2-1.2,2.3-2.3,3.5-3.5c1.5-1.5,3-3,4.4-4.5
		c0.2-0.2,0.3-0.2,0.5,0c2.6,2.6,5.3,5.3,7.9,7.9c0.2,0.2,0.2,0.3,0,0.5c-0.3,0.2-0.5,0.5-0.7,0.7c-0.2,0.2-0.3,0.2-0.4,0
		c-0.7-0.8-1.5-1.5-2.3-2.3c-1.2-1.2-2.4-2.4-3.5-3.6C31.5,11.9,31.4,11.7,31.2,11.7z"/>
</g>
</svg>
