<svg xmlns="http://www.w3.org/2000/svg" width="82" height="26" viewBox="0 0 82 26">
  <metadata><?xpacket begin="﻿" id="W5M0MpCehiHzreSzNTczkc9d"?>
<x:xmpmeta xmlns:x="adobe:ns:meta/" x:xmptk="Adobe XMP Core 5.6-c138 79.159824, 2016/09/14-01:09:01        ">
   <rdf:RDF xmlns:rdf="http://www.w3.org/1999/02/22-rdf-syntax-ns#">
      <rdf:Description rdf:about=""/>
   </rdf:RDF>
</x:xmpmeta>
                                                                                                    
                                                                                                    
                                                                                                    
                                                                                                    
                                                                                                    
                                                                                                    
                                                                                                    
                                                                                                    
                                                                                                    
                                                                                                    
                                                                                                    
                                                                                                    
                                                                                                    
                                                                                                    
                                                                                                    
                                                                                                    
                                                                                                    
                                                                                                    
                                                                                                    
                                                                                                    
                           
<?xpacket end="w"?></metadata>
<defs>
    <style>
      .cls-1 {
        fill: #fff;
        fill-rule: evenodd;
      }
    </style>
  </defs>
  <path id="Westfield_logo" data-name="Westfield logo" class="cls-1" d="M1652.64,3138.81c-0.02-.11-0.03-0.23-0.05-0.34v-0.01l4.34-4.3,3.35-3.33a4.6,4.6,0,0,0,1.15-3.09c-0.53-3.2-.95-5.74-0.95-5.74l-8.41,3.42-0.03.01,0.15,0.62s2.14-.82,2.86-0.03a1.225,1.225,0,0,1,.3.53c0.19,0.63.49,1.94,1.02,4.82a1.6,1.6,0,0,1-.27,1.22,0.173,0.173,0,0,0-.03.04l-3.78,3.8h0l-0.01.01c-0.84-5.5-2.32-14.42-2.32-14.42l-8.45,3.44,0.16,0.62s2.13-.82,2.85-0.04a1.3,1.3,0,0,1,.3.53c0.2,0.63.49,1.94,1.03,4.82a1.533,1.533,0,0,1-.35,1.31l-3.73,3.76c-0.85-5.5-2.32-14.37-2.32-14.37l-8.45,3.43,0.16,0.62s2.13-.82,2.85-0.03c0.34,0.37.56,0.21,3.35,16.84a4.788,4.788,0,0,1-1.94,4.26l0.64,0.78s6.75-4.4,6.07-9.11q-0.03-.18-0.06-0.39l4.31-4.27c0.4,2.21.89,5.03,1.49,8.67a4.788,4.788,0,0,1-1.94,4.26l0.65,0.77s6.74-4.39,6.06-9.11m30.13-5.53c-0.04.17-.08,0.35-0.13,0.52-0.14.59-.28,1.13-0.28,1.13h2.39c-0.01,0,.15-0.59.31-1.22,0.19-.73.39-1.5,0.39-1.51,0.31-1.25-.5-3.33-2.48-2.98a6.2,6.2,0,0,0-2,.85,17.844,17.844,0,0,0-2.59,1.94c0.02,0-1.45,4.92-1.45,4.92l-3.31.01c0.71-2.66,1.19-2.95-.04-4.41l-1.84.87a2.044,2.044,0,0,1,.07,1.41c-0.22.72-.62,2.14-0.62,2.14h-1.3l-0.39,1.21,1.34-.01c0.01,0.02-2.03,8.25-2.05,8.25a2.419,2.419,0,0,0,1.96,1.59c-0.02,0,3.02-1.86,3.01-1.87l-0.36-.63c-1.78,1.15-1.98.35-1.97-.03,0.63-2.42,1.82-7.3,1.82-7.3h2.91s0.5-.06.38,0.38l-2.26,9.21,2.48-.02,2.37-9.57h1.65c0.49,0.01.78,0.22,0.63,0.78,0,0-1.83,7.41-1.85,7.46a2.419,2.419,0,0,0,1.96,1.59l3.01-1.87-0.37-.62a3.8,3.8,0,0,1-1.28.58,0.581,0.581,0,0,1-.54-0.15,0.672,0.672,0,0,1-.14-0.47c0.63-2.42,2.12-8.53,2.12-8.53h-4.91l1.22-4.62a1.966,1.966,0,0,1,1.83-1.21c0.74,0.11.57,1.07,0.34,2.04-0.01.04-.02,0.09-0.03,0.14m-13.44,5.93h0m0,0h0a3.778,3.778,0,0,0-.17-0.35,3.222,3.222,0,0,0-2-1.88,0.451,0.451,0,0,0-.11-0.03,2.344,2.344,0,0,0-.56-0.06c-1.41.01-3.57,0.94-4.11,2.34a7.03,7.03,0,0,0-.59,2.76,0.917,0.917,0,0,0,.06.25,1.324,1.324,0,0,0,.45.55,7.438,7.438,0,0,0,2.12.81,0.076,0.076,0,0,0,.04.01c0.07,0.03.14,0.05,0.2,0.07a0.852,0.852,0,0,1,.61.58,3.334,3.334,0,0,1-.49,1.84c-0.77,1.27-1.77.5-2.7-1.53a0.02,0.02,0,0,1-.02.01h-0.01c-0.06.04-1.77,1.05-1.83,1.09h-0.01c0.06,0.12.12,0.24,0.18,0.35a3.247,3.247,0,0,0,2,1.89l0.11,0.03a2.344,2.344,0,0,0,.56.06c1.4-.01,3.57-0.95,4.11-2.35a7.03,7.03,0,0,0,.59-2.76,0.844,0.844,0,0,0-.06-0.24,1.211,1.211,0,0,0-.45-0.55,7.117,7.117,0,0,0-2.13-.82c-0.01,0-.02-0.01-0.03-0.01-0.07-.02-0.14-0.05-0.2-0.07a0.852,0.852,0,0,1-.61-0.58,3.283,3.283,0,0,1,.49-1.83c0.77-1.28,1.77-.51,2.7,1.52a0.035,0.035,0,0,1,.02-0.01h0c0.07-.03,1.78-1.05,1.84-1.09m43.63-9.83c-1.76-.04-3.7.12-4.99,1.49a60.509,60.509,0,0,0-2.2,6.61c-0.45-.63-4-1.44-6.05,1.28,0,0.01-.01.02-0.01,0.03-0.27.53-1.77,6.48-1.79,6.48a6.647,6.647,0,0,1-2.04.84,0.637,0.637,0,0,1-.42-0.7c1.34-4.54,2.26-9.17,3.75-13.64a3.615,3.615,0,0,1,2.98-1.77l-0.04-.62c-1.76-.04-3.7.12-4.99,1.49-0.97,1.59-4.21,14.9-4.21,14.9a2.093,2.093,0,0,0,1.81,2.22,29.2,29.2,0,0,0,3.28-1.83,7.46,7.46,0,0,0,1.41,1.45c1.4,1,4.15-.78,4.16-0.76a1.92,1.92,0,0,0,2.04,1.06,38.268,38.268,0,0,0,3.89-2.27l-0.42-.67a8.789,8.789,0,0,1-2.58,1.13,0.468,0.468,0,0,1-.39-0.68c-0.02.02,3.87-13.63,3.87-13.65A3.6,3.6,0,0,1,1713,3130Zm-7.7,10.21-1.37,4.92a0.972,0.972,0,0,1-.33.52c-1.64,1.32-3.56,1.85-2.88-.96,0,0,1.18-4.57,1.38-4.89,1.04-1.36,3.34-1.53,3.2.41m-12.06-2.31c-0.8-.79-2.56-0.34-3.68-0.06-1.19.37-2.5,0.78-3.06,2.13-0.45,1.56-1.21,4.45-1.62,6.36-0.02.51,1.65,2.18,2.89,2.28,0.37,0.14,4.21-2.34,4.21-2.34l-0.41-.68a8.631,8.631,0,0,1-2.51,1.11,0.553,0.553,0,0,1-.09-0.01,1.947,1.947,0,0,1-1.42-.97,13.648,13.648,0,0,1,.47-2.1s3.69,0.17,4.79-1.22c0.8-1.29,1.35-3.48.43-4.5m-2.04,3.11c-0.54,1.54-2.45,1.33-2.76,1.29h0a0.125,0.125,0,0,1-.03-0.12l0.48-1.84a2.228,2.228,0,0,1,2.14-1.53c0.89,0.35.17,2.2,0.17,2.2m-30.28-3.11c-0.81-.79-2.58-0.37-3.69-0.06-1.19.34-2.49,0.78-3.06,2.13-0.45,1.56-1.2,4.45-1.62,6.36-0.01.51,1.66,2.18,2.9,2.28,0.37,0.14,4.2-2.34,4.2-2.34l-0.41-.68a8.666,8.666,0,0,1-2.5,1.11,0.413,0.413,0,0,1-.09-0.01,1.946,1.946,0,0,1-1.43-.97,14.933,14.933,0,0,1,.47-2.1s3.69,0.17,4.79-1.22c0.8-1.29,1.35-3.48.44-4.5m-2.04,3.11c-0.54,1.54-2.46,1.33-2.76,1.29h0a0.139,0.139,0,0,1-.04-0.12l0.49-1.84a2.217,2.217,0,0,1,2.13-1.53c0.9,0.35.18,2.2,0.18,2.2m-0.74,2865.48,0-5688.918" transform="translate(-1631 -3122)"/>
</svg>
